<svg width="32" height="32" viewBox="0 0 32 32" fill="none" xmlns="http://www.w3.org/2000/svg">
<path d="M2.875 31.75C2.175 31.75 1.5625 31.4875 1.0375 30.9625C0.5125 30.4375 0.25 29.825 0.25 29.125V2.875C0.25 2.175 0.5125 1.5625 1.0375 1.0375C1.5625 0.5125 2.175 0.25 2.875 0.25H13.7688C14.1479 0.25 14.4615 0.373958 14.7094 0.621875C14.9573 0.869792 15.0813 1.18333 15.0813 1.5625C15.0813 1.94167 14.9573 2.25521 14.7094 2.50312C14.4615 2.75104 14.1479 2.875 13.7688 2.875H2.875V29.125H29.125V18.2312C29.125 17.8521 29.249 17.5385 29.4969 17.2906C29.7448 17.0427 30.0583 16.9187 30.4375 16.9187C30.8167 16.9187 31.1302 17.0427 31.3781 17.2906C31.626 17.5385 31.75 17.8521 31.75 18.2312V29.125C31.75 29.825 31.4875 30.4375 30.9625 30.9625C30.4375 31.4875 29.825 31.75 29.125 31.75H2.875ZM10.7937 21.2063C10.5604 20.9438 10.4365 20.6375 10.4219 20.2875C10.4073 19.9375 10.5312 19.6313 10.7937 19.3687L27.2875 2.875H19.0188C18.6396 2.875 18.326 2.75104 18.0781 2.50312C17.8302 2.25521 17.7063 1.94167 17.7063 1.5625C17.7063 1.18333 17.8302 0.869792 18.0781 0.621875C18.326 0.373958 18.6396 0.25 19.0188 0.25H30.4375C30.8167 0.25 31.1302 0.373958 31.3781 0.621875C31.626 0.869792 31.75 1.18333 31.75 1.5625V12.9812C31.75 13.3604 31.626 13.674 31.3781 13.9219C31.1302 14.1698 30.8167 14.2937 30.4375 14.2937C30.0583 14.2937 29.7448 14.1698 29.4969 13.9219C29.249 13.674 29.125 13.3604 29.125 12.9812V4.75625L12.6312 21.25C12.3979 21.4833 12.099 21.6 11.7344 21.6C11.3698 21.6 11.0562 21.4688 10.7937 21.2063Z" fill="#D2D2D2"/>
</svg>
